<svg width="130" height="130" viewBox="0 0 130 130" fill="none" xmlns="http://www.w3.org/2000/svg">
<rect x="0.5" y="0.5" width="129" height="129" rx="19.5" stroke="#2AB9C0"/>
<path d="M42.3929 71.0508L34.5655 66.6328C34.0959 66.3744 33.717 65.9993 33.429 65.5074C33.1409 65.0154 32.9979 64.4863 33 63.92V55.0839C33 54.5155 33.144 53.9853 33.4321 53.4934C33.7201 53.0014 34.0979 52.6273 34.5655 52.371L42.3929 47.953C42.8625 47.6946 43.3844 47.5654 43.9584 47.5654C44.5324 47.5654 45.0542 47.6946 45.5239 47.953L53.3512 52.371C53.8209 52.6294 54.1997 53.0046 54.4878 53.4965C54.7758 53.9884 54.9188 54.5175 54.9167 55.0839V63.92C54.9167 64.4884 54.7727 65.0185 54.4847 65.5105C54.1966 66.0024 53.8188 66.3765 53.3512 66.6328L45.5239 71.0508C45.0542 71.3092 44.5324 71.4384 43.9584 71.4384C43.3844 71.4384 42.8625 71.3092 42.3929 71.0508ZM43.9584 64.7726L48.6548 62.1372V56.8666L43.9584 54.2313L39.2619 56.8666V62.1372L43.9584 64.7726ZM78.3989 74.3062V67.0978L86.2263 71.6709C87.2178 72.2393 87.988 73.002 88.5369 73.959C89.0859 74.916 89.3593 75.936 89.3573 77.0191V91.5909C89.3573 92.676 89.0828 93.697 88.5338 94.654C87.9848 95.611 87.2157 96.3727 86.2263 96.939L73.7025 104.147C72.711 104.716 71.6673 105 70.5715 105C69.4757 105 68.432 104.716 67.4406 104.147L54.9167 96.939C53.9253 96.3706 53.155 95.6079 52.6061 94.6509C52.0571 93.6939 51.7837 92.6739 51.7858 91.5909V77.0191C51.7858 75.9339 52.0602 74.9129 52.6092 73.9559C53.1582 72.9989 53.9273 72.2372 54.9167 71.6709L62.7441 67.0978V74.3062L58.0477 77.0191V91.5909L70.5715 98.7992L83.0953 91.5909V77.0191L78.3989 74.3062ZM73.7025 62.6023V78.1042C73.7025 78.9826 73.4019 79.7195 72.8008 80.3148C72.1996 80.91 71.4565 81.2066 70.5715 81.2046C69.6844 81.2046 68.9403 80.9069 68.3391 80.3117C67.738 79.7164 67.4385 78.9806 67.4406 78.1042V47.1004C67.4406 46.222 67.7411 45.4851 68.3423 44.8898C68.9434 44.2945 69.6865 43.9979 70.5715 44H89.7486C91.001 44 91.9403 44.5426 92.5665 45.6277C93.1927 46.7128 93.1405 47.7721 92.4099 48.8056L90.5314 51.5959C90.1661 52.1127 89.9834 52.6811 89.9834 53.3012C89.9834 53.9212 90.1661 54.4896 90.5314 55.0064L92.4099 57.7967C93.1405 58.8302 93.1927 59.8895 92.5665 60.9746C91.9403 62.0597 91.001 62.6023 89.7486 62.6023H73.7025Z" fill="#2AB9C0"/>
</svg>
