<svg width="75" height="75" viewBox="0 0 75 75" fill="none" xmlns="http://www.w3.org/2000/svg">
<path d="M18.9062 56.1719C18.2292 56.1719 17.6693 55.9505 17.2266 55.5078C16.7839 55.0651 16.5625 54.5052 16.5625 53.8281V31.9531C16.5625 31.3281 16.7969 30.7943 17.2656 30.3516C17.7344 29.9089 18.2812 29.6875 18.9062 29.6875C19.5833 29.6875 20.1432 29.9089 20.5859 30.3516C21.0286 30.7943 21.25 31.3542 21.25 32.0312V53.9062C21.25 54.5312 21.0156 55.0651 20.5469 55.5078C20.0781 55.9505 19.5312 56.1719 18.9062 56.1719ZM37.8125 56.1719C37.1354 56.1719 36.5755 55.9505 36.1328 55.5078C35.6901 55.0651 35.4687 54.5052 35.4687 53.8281V31.9531C35.4687 31.3281 35.7031 30.7943 36.1719 30.3516C36.6406 29.9089 37.1875 29.6875 37.8125 29.6875C38.4896 29.6875 39.0495 29.9089 39.4922 30.3516C39.9349 30.7943 40.1562 31.3542 40.1562 32.0312V53.9062C40.1562 54.5312 39.9219 55.0651 39.4531 55.5078C38.9844 55.9505 38.4375 56.1719 37.8125 56.1719ZM8.51562 65.5469C7.89062 65.5469 7.35677 65.3125 6.91406 64.8438C6.47135 64.375 6.25 63.8281 6.25 63.2031C6.25 62.526 6.47135 61.9661 6.91406 61.5234C7.35677 61.0807 7.91667 60.8594 8.59375 60.8594H66.4844C67.1094 60.8594 67.6432 61.0938 68.0859 61.5625C68.5286 62.0312 68.75 62.5781 68.75 63.2031C68.75 63.8802 68.5286 64.4401 68.0859 64.8828C67.6432 65.3255 67.0833 65.5469 66.4062 65.5469H8.51562ZM56.0937 56.1719C55.4167 56.1719 54.8568 55.9505 54.4141 55.5078C53.9713 55.0651 53.75 54.5052 53.75 53.8281V31.9531C53.75 31.3281 53.9844 30.7943 54.4531 30.3516C54.9219 29.9089 55.4687 29.6875 56.0937 29.6875C56.7708 29.6875 57.3307 29.9089 57.7734 30.3516C58.2161 30.7943 58.4375 31.3542 58.4375 32.0312V53.9062C58.4375 54.5312 58.2031 55.0651 57.7344 55.5078C57.2656 55.9505 56.7187 56.1719 56.0937 56.1719ZM39.8437 4.375L67.0312 19.8438C67.5521 20.1042 67.9687 20.4818 68.2812 20.9766C68.5937 21.4714 68.75 22.0052 68.75 22.5781C68.75 23.3073 68.4635 23.8932 67.8906 24.3359C67.3177 24.7786 66.6667 25 65.9375 25H9.0625C8.33333 25 7.68229 24.7786 7.10937 24.3359C6.53646 23.8932 6.25 23.3073 6.25 22.5781C6.25 22.0052 6.41927 21.4844 6.75781 21.0156C7.09635 20.5469 7.52604 20.1562 8.04687 19.8438L35.1562 4.375C35.8854 3.95833 36.6667 3.75 37.5 3.75C38.3333 3.75 39.1146 3.95833 39.8437 4.375ZM16.7187 20.3125H58.2812L37.5 8.4375L16.7187 20.3125Z" fill="white"/>
</svg>
