<svg width="130" height="130" viewBox="0 0 130 130" fill="none" xmlns="http://www.w3.org/2000/svg">
<rect x="0.5" y="0.5" width="129" height="129" rx="19.5" stroke="#2AB9C0"/>
<path d="M45.2917 67.8333C45.2917 56.949 54.1157 48.125 65.0001 48.125C75.8845 48.125 84.7084 56.949 84.7084 67.8333C84.7084 78.7177 75.8845 87.5417 65.0001 87.5417C54.1157 87.5417 45.2917 78.7177 45.2917 67.8333Z" fill="#2AB9C0"/>
<path fill-rule="evenodd" clip-rule="evenodd" d="M77.5417 93.6173C87.0877 88.9643 93.6667 79.1675 93.6667 67.8334C93.6667 52.0005 80.833 39.1667 65 39.1667C49.1689 39.1667 36.3334 52.0005 36.3334 67.8334C36.3334 79.1693 42.9124 88.9679 52.4602 93.6191V109.042C52.4601 109.366 52.5481 109.684 52.7148 109.963C52.8815 110.241 53.1206 110.469 53.4066 110.622C53.6926 110.775 54.0148 110.847 54.3388 110.832C54.6627 110.816 54.9764 110.712 55.2462 110.532L65 104.029L74.7557 110.532C75.0255 110.712 75.3391 110.816 75.6631 110.832C75.9871 110.847 76.3093 110.775 76.5953 110.622C76.8813 110.469 77.1204 110.241 77.2871 109.963C77.4537 109.684 77.5418 109.366 77.5417 109.042V93.6173ZM65 92.9167C78.8532 92.9167 90.0834 81.6866 90.0834 67.8334C90.0834 53.9802 78.8532 42.7501 65 42.7501C51.1469 42.7501 39.9167 53.9802 39.9167 67.8334C39.9167 81.6866 51.1469 92.9167 65 92.9167Z" fill="#2AB9C0"/>
</svg>
