<svg width="130" height="130" viewBox="0 0 130 130" fill="none" xmlns="http://www.w3.org/2000/svg">
<rect x="0.5" y="0.5" width="129" height="129" rx="19.5" stroke="#2AB9C0"/>
<path d="M51.3125 77.5625H71.5625V82.625H51.3125V77.5625ZM51.3125 64.9062H81.6875V69.9688H51.3125V64.9062ZM51.3125 90.2188H63.9688V95.2812H51.3125V90.2188Z" fill="#2AB9C0"/>
<path d="M89.2812 44.6562H81.6875V42.125C81.6875 40.7823 81.1541 39.4947 80.2047 38.5453C79.2553 37.5959 77.9677 37.0625 76.625 37.0625H56.375C55.0323 37.0625 53.7447 37.5959 52.7953 38.5453C51.8459 39.4947 51.3125 40.7823 51.3125 42.125V44.6562H43.7188C42.3761 44.6562 41.0884 45.1896 40.139 46.139C39.1896 47.0884 38.6563 48.3761 38.6562 49.7188V102.875C38.6562 104.218 39.1896 105.505 40.139 106.455C41.0884 107.404 42.3761 107.938 43.7188 107.938H89.2812C90.6239 107.938 91.9116 107.404 92.861 106.455C93.8104 105.505 94.3438 104.218 94.3438 102.875V49.7188C94.3438 48.3761 93.8104 47.0884 92.861 46.139C91.9116 45.1896 90.6239 44.6562 89.2812 44.6562ZM56.375 42.125H76.625V52.25H56.375V42.125ZM89.2812 102.875H43.7188V49.7188H51.3125V57.3125H81.6875V49.7188H89.2812V102.875Z" fill="#2AB9C0"/>
</svg>
