<svg width="75" height="75" viewBox="0 0 75 75" fill="none" xmlns="http://www.w3.org/2000/svg">
<path d="M34.375 39.0625V45.0781C34.375 45.5469 34.5573 45.9635 34.9219 46.3281C35.2865 46.6927 35.7031 46.875 36.1719 46.875H38.9063C39.3932 46.875 39.8014 46.6927 40.1309 46.3281C40.4603 45.9635 40.625 45.5469 40.625 45.0781V39.0625H46.7188C47.2057 39.0625 47.6139 38.8802 47.9434 38.5156C48.2728 38.151 48.4375 37.7344 48.4375 37.2656V34.5313C48.4375 34.0443 48.2728 33.6361 47.9434 33.3066C47.6139 32.9772 47.2057 32.8125 46.7188 32.8125H40.625V26.7188C40.625 26.2318 40.4603 25.8236 40.1309 25.4941C39.8014 25.1647 39.3932 25 38.9063 25H36.1719C35.7031 25 35.2865 25.1647 34.9219 25.4941C34.5573 25.8236 34.375 26.2318 34.375 26.7188V32.8125H28.3594C27.8906 32.8125 27.474 32.9772 27.1094 33.3066C26.7448 33.6361 26.5625 34.0443 26.5625 34.5313V37.2656C26.5625 37.7344 26.7448 38.151 27.1094 38.5156C27.474 38.8802 27.8906 39.0625 28.3594 39.0625H34.375ZM37.5 68.4375C37.2229 68.4375 36.9656 68.4115 36.7281 68.3594C36.4906 68.3073 36.2531 68.2292 36.0156 68.125C28.776 65.6771 23.0469 61.2891 18.8281 54.9609C14.6094 48.6328 12.5 41.6899 12.5 34.1323V18.8281C12.5 17.8252 12.7832 16.9225 13.3496 16.1202C13.916 15.3178 14.6484 14.736 15.5469 14.375L35.8594 6.79688C36.4323 6.58854 36.9792 6.48438 37.5 6.48438C38.0208 6.48438 38.5677 6.58854 39.1406 6.79688L59.4531 14.375C60.3516 14.736 61.084 15.3178 61.6504 16.1202C62.2168 16.9225 62.5 17.8252 62.5 18.8281V34.1323C62.5 41.6899 60.3906 48.6328 56.1719 54.9609C51.9531 61.2891 46.224 65.6771 38.9844 68.125C38.7469 68.2292 38.5094 68.3073 38.2719 68.3594C38.0344 68.4115 37.7771 68.4375 37.5 68.4375ZM37.5 63.8281C43.4896 61.849 48.3724 58.112 52.1484 52.6172C55.9245 47.1224 57.8125 40.9635 57.8125 34.1406V18.8281L37.5 11.1719L17.1875 18.8281V34.1406C17.1875 40.9635 19.0755 47.1224 22.8516 52.6172C26.6276 58.112 31.5104 61.849 37.5 63.8281Z" fill="white"/>
</svg>
