<svg width="130" height="130" viewBox="0 0 130 130" fill="none" xmlns="http://www.w3.org/2000/svg">
<rect x="0.5" y="0.5" width="129" height="129" rx="19.5" stroke="#2AB9C0"/>
<g clip-path="url(#clip0_167_2255)">
<path d="M84.1725 90.3593C85.154 91.3326 86.1381 92.3237 87.1462 93.2893C87.2528 93.3904 87.5001 93.3776 87.6763 93.3584C89.2894 93.183 90.6881 93.6491 91.8358 94.8029C95.5946 98.5805 99.3466 102.365 103.092 106.158C104.605 107.694 105.079 109.52 104.381 111.559C103.692 113.577 102.207 114.719 100.109 114.964C99.3709 115.061 98.6205 114.982 97.918 114.734C97.2155 114.485 96.5804 114.074 96.0638 113.532C92.2594 109.714 88.4638 105.883 84.6772 102.039C83.5714 100.918 83.0984 99.5346 83.248 97.9582C83.2911 97.5074 83.1567 97.2091 82.8384 96.9004C81.971 96.0591 81.1416 95.1781 80.2666 94.283C74.3939 98.5869 67.9594 99.8995 60.991 97.9441C55.8715 96.5073 51.8223 93.4468 48.9158 88.9584C42.967 79.7704 44.5559 67.9739 52.6847 60.5504C60.3138 53.5803 72.252 53.2973 80.448 59.7911C88.8849 66.4743 91.955 80.0291 84.1725 90.3593ZM67.0171 94.1857C76.5015 94.178 84.0938 86.4818 84.0888 76.8776C84.0888 67.4924 76.4153 59.7078 67.1782 59.7181C57.5607 59.7181 49.9189 67.3592 49.91 76.9775C49.9011 86.4818 57.5632 94.1946 67.0171 94.1857Z" fill="#2AB9C0"/>
<path d="M89.7256 83.7441C91.1865 78.5078 90.9747 73.4215 89.0801 68.2493C90.2442 68.0136 91.3627 67.6909 92.4914 67.5757C96.8157 67.1339 100.823 68.038 104.295 70.7771C107.108 72.9912 108.792 75.866 108.996 79.5413C109.047 80.4633 108.722 81.1945 107.944 81.5543C106.725 82.1177 105.475 82.6876 104.176 82.9847C99.9036 83.9643 95.5526 84.0604 91.1966 83.835C90.735 83.8094 90.2734 83.7773 89.7256 83.7441Z" fill="#2AB9C0"/>
<path d="M44.8818 68.3645C43.0265 73.4316 42.816 78.5168 44.2769 83.7312C43.5858 83.7837 42.9441 83.8593 42.2999 83.8759C38.1328 84.0116 33.9721 83.9361 29.8849 82.9962C28.6839 82.7196 27.5134 82.2509 26.3785 81.7553C25.383 81.3212 24.9201 80.5144 25.0114 79.3414C25.3031 75.6278 27.0404 72.7235 29.9673 70.5837C34.4273 67.3182 39.3692 66.742 44.6079 68.23C44.7026 68.2675 44.7942 68.3124 44.8818 68.3645Z" fill="#2AB9C0"/>
<path d="M47.1454 57.2275C47.0097 60.4801 45.8773 63.0015 43.459 64.843C40.9975 66.719 37.8792 66.6818 35.5014 64.7059C32.7115 62.3932 31.5702 59.3775 32.1738 55.7804C32.7851 52.159 36.4145 49.6337 40.2417 50.0448C43.6543 50.4149 46.0954 52.3626 46.8588 55.3694C47.03 56.0442 47.0744 56.7511 47.1454 57.2275Z" fill="#2AB9C0"/>
<path d="M102.038 57.1443C101.878 60.4161 100.795 62.9068 98.4758 64.7418C95.994 66.71 92.8694 66.7344 90.4155 64.7329C87.5229 62.3728 86.3955 59.2597 87.0943 55.5743C87.6763 52.5009 90.2443 50.3944 93.8078 50.0602C97.2152 49.7413 100.602 51.5495 101.649 55.0813C101.876 55.8483 101.949 56.6615 102.038 57.1443Z" fill="#2AB9C0"/>
<path d="M66.9918 63.6636C70.7696 63.6546 73.6584 65.9033 74.4066 69.4325C75.1548 72.9618 73.321 77.153 70.204 78.9253C67.8452 80.2674 65.4611 80.1803 63.2901 78.5834C60.3062 76.3911 59.0393 73.3267 59.5707 69.6438C60.0906 66.0429 63.1379 63.6713 66.9918 63.6636Z" fill="#2AB9C0"/>
<path d="M55.1943 86.3219C60.783 79.4811 72.9279 79.2276 78.7931 86.2963C73.4377 93.7632 61.3245 94.3805 55.1943 86.3219Z" fill="#2AB9C0"/>
</g>
<defs>
<clipPath id="clip0_167_2255">
<rect width="84" height="65" fill="white" transform="translate(25 50)"/>
</clipPath>
</defs>
</svg>
