<svg width="75" height="75" viewBox="0 0 75 75" fill="none" xmlns="http://www.w3.org/2000/svg">
<path d="M37.5 68.75C33.1771 68.75 29.1146 67.9297 25.3125 66.2891C21.5104 64.6484 18.2031 62.4219 15.3906 59.6094C12.5781 56.7969 10.3516 53.4896 8.71094 49.6875C7.07031 45.8854 6.25 41.8229 6.25 37.5C6.25 33.1771 7.07031 29.1146 8.71094 25.3125C10.3516 21.5104 12.5781 18.2031 15.3906 15.3906C18.2031 12.5781 21.5104 10.3516 25.3125 8.71094C29.1146 7.07031 33.1771 6.25 37.5 6.25C41.8229 6.25 45.8854 7.07031 49.6875 8.71094C53.4896 10.3516 56.7969 12.5781 59.6094 15.3906C62.4219 18.2031 64.6484 21.5104 66.2891 25.3125C67.9297 29.1146 68.75 33.1771 68.75 37.5C68.75 41.8229 67.9297 45.8854 66.2891 49.6875C64.6484 53.4896 62.4219 56.7969 59.6094 59.6094C56.7969 62.4219 53.4896 64.6484 49.6875 66.2891C45.8854 67.9297 41.8229 68.75 37.5 68.75ZM34.1406 63.9844V57.5781C32.3177 57.5781 30.7812 56.901 29.5312 55.5469C28.2812 54.1927 27.6562 52.6042 27.6562 50.7812V47.3438L11.6406 31.3281C11.3802 32.3698 11.1979 33.3984 11.0938 34.4141C10.9896 35.4297 10.9375 36.4583 10.9375 37.5C10.9375 44.2708 13.138 50.1823 17.5391 55.2344C21.9401 60.2865 27.474 63.2031 34.1406 63.9844ZM57.1094 55.5469C58.2552 54.2969 59.2578 52.9688 60.1172 51.5625C60.9766 50.1562 61.7057 48.6849 62.3047 47.1484C62.9036 45.612 63.3464 44.0365 63.6328 42.4219C63.9193 40.8073 64.0625 39.1667 64.0625 37.5C64.0625 31.9792 62.5521 26.9661 59.5312 22.4609C56.5104 17.9557 52.474 14.6615 47.4219 12.5781V13.9844C47.4219 15.8073 46.7969 17.3958 45.5469 18.75C44.2969 20.1042 42.7604 20.7812 40.9375 20.7812H34.1406V27.5781C34.1406 28.4635 33.7891 29.1927 33.0859 29.7656C32.3828 30.3385 31.5885 30.625 30.7031 30.625H24.2188V37.5H44.375C45.2604 37.5 45.9896 37.8385 46.5625 38.5156C47.1354 39.1927 47.4219 39.974 47.4219 40.8594V50.7812H50.7812C52.2917 50.7812 53.6198 51.224 54.7656 52.1094C55.9115 52.9948 56.6927 54.1406 57.1094 55.5469Z" fill="white"/>
</svg>
