<svg width="75" height="75" viewBox="0 0 75 75" fill="none" xmlns="http://www.w3.org/2000/svg">
<path d="M60.1562 47.2656H64.8438V22.1875C64.8438 21.4583 64.6745 20.7422 64.3359 20.0391C63.9974 19.3359 63.5156 18.776 62.8906 18.3594L46.4844 6.64062C45.6525 6.06771 44.7414 5.78125 43.7511 5.78125C42.7608 5.78125 41.849 6.06771 41.0156 6.64062L24.6094 18.3594C23.9844 18.776 23.5026 19.3359 23.1641 20.0391C22.8255 20.7422 22.6562 21.4583 22.6562 22.1875V32.1875H27.3438V22.1094L43.75 10.625L60.1562 22.1094V47.2656ZM46.875 26.5625C46.4583 26.5625 46.0938 26.4062 45.7812 26.0938C45.4688 25.7812 45.3125 25.4167 45.3125 25C45.3125 24.5833 45.4688 24.2188 45.7812 23.9062C46.0938 23.5938 46.4583 23.4375 46.875 23.4375C47.2917 23.4375 47.6562 23.5938 47.9688 23.9062C48.2812 24.2188 48.4375 24.5833 48.4375 25C48.4375 25.4167 48.2812 25.7812 47.9688 26.0938C47.6562 26.4062 47.2917 26.5625 46.875 26.5625ZM40.625 26.5625C40.2083 26.5625 39.8438 26.4062 39.5312 26.0938C39.2188 25.7812 39.0625 25.4167 39.0625 25C39.0625 24.5833 39.2188 24.2188 39.5312 23.9062C39.8438 23.5938 40.2083 23.4375 40.625 23.4375C41.0417 23.4375 41.4062 23.5938 41.7188 23.9062C42.0312 24.2188 42.1875 24.5833 42.1875 25C42.1875 25.4167 42.0312 25.7812 41.7188 26.0938C41.4062 26.4062 41.0417 26.5625 40.625 26.5625ZM46.875 32.8125C46.4583 32.8125 46.0938 32.6562 45.7812 32.3438C45.4688 32.0312 45.3125 31.6667 45.3125 31.25C45.3125 30.8333 45.4688 30.4688 45.7812 30.1562C46.0938 29.8438 46.4583 29.6875 46.875 29.6875C47.2917 29.6875 47.6562 29.8438 47.9688 30.1562C48.2812 30.4688 48.4375 30.8333 48.4375 31.25C48.4375 31.6667 48.2812 32.0312 47.9688 32.3438C47.6562 32.6562 47.2917 32.8125 46.875 32.8125ZM40.625 32.8125C40.2083 32.8125 39.8438 32.6562 39.5312 32.3438C39.2188 32.0312 39.0625 31.6667 39.0625 31.25C39.0625 30.8333 39.2188 30.4688 39.5312 30.1562C39.8438 29.8438 40.2083 29.6875 40.625 29.6875C41.0417 29.6875 41.4062 29.8438 41.7188 30.1562C42.0312 30.4688 42.1875 30.8333 42.1875 31.25C42.1875 31.6667 42.0312 32.0312 41.7188 32.3438C41.4062 32.6562 41.0417 32.8125 40.625 32.8125ZM43.9062 65.3125L63.2812 59.2188C62.9688 58.8021 62.5731 58.2682 62.0942 57.6172C61.6154 56.9661 61.0736 56.6406 60.4688 56.6406H41.875C41.7708 56.6406 41.3021 56.6016 40.4688 56.5234C39.6354 56.4453 38.8281 56.224 38.0469 55.8594L32.8906 54.2969C32.2656 54.0885 31.7969 53.6719 31.4844 53.0469C31.1719 52.4219 31.1198 51.7969 31.3281 51.1719C31.5365 50.5469 31.9343 50.0781 32.5217 49.7656C33.1091 49.4531 33.7269 49.4271 34.375 49.6875L41.6406 52.1094C41.5365 52.1094 41.9141 52.0833 42.7734 52.0312C43.6328 51.9792 44.8654 51.9531 46.4713 51.9531H47.1875C47.1875 51.3063 47.0703 50.6889 46.8359 50.1008C46.6016 49.5128 46.1979 49.0885 45.625 48.8281L26.4844 41.5625H19.9219V58.2812L43.9062 65.3125ZM42.8906 69.7656L19.9219 63.2031C19.8177 64.6094 19.2318 65.7031 18.1641 66.4844C17.0964 67.2656 16.1198 67.6562 15.2344 67.6562H7.8125C6.52344 67.6562 5.41992 67.1973 4.50195 66.2793C3.58398 65.3613 3.125 64.2578 3.125 62.9688V41.5625C3.125 40.2734 3.58398 39.1699 4.50195 38.252C5.41992 37.334 6.52344 36.875 7.8125 36.875H26.4062C26.684 36.875 26.9618 36.901 27.2396 36.9531C27.5174 37.0052 27.7865 37.0833 28.0469 37.1875L47.1875 44.375C48.5938 44.8958 49.7786 45.7422 50.7422 46.9141C51.7057 48.0859 52.1875 49.7656 52.1875 51.9531H61.0938C63.2812 51.9531 65.1042 52.7344 66.5625 54.2969C68.0208 55.8594 68.75 57.9688 68.75 60.625C68.75 61.1979 68.6198 61.7057 68.3594 62.1484C68.099 62.5911 67.6823 62.9167 67.1094 63.125L45.5469 69.7656C45.1213 69.8698 44.6764 69.9219 44.212 69.9219C43.7478 69.9219 43.3073 69.8698 42.8906 69.7656ZM7.8125 62.9688H15.1562V41.5625H7.8125V62.9688Z" fill="white"/>
</svg>
