<svg width="75" height="75" viewBox="0 0 75 75" fill="none" xmlns="http://www.w3.org/2000/svg">
<path d="M17.1875 54.5313C16.4583 54.1146 15.8724 53.5449 15.4297 52.8223C14.987 52.0996 14.7656 51.2891 14.7656 50.3906V34.4531L6.95312 30.1563C6.53646 29.8958 6.22396 29.5957 6.01562 29.2559C5.80729 28.916 5.70312 28.5384 5.70312 28.123C5.70312 27.7077 5.80729 27.3307 6.01562 26.9922C6.22396 26.6536 6.53646 26.3542 6.95312 26.0938L35.1562 10.625C35.5208 10.4167 35.8908 10.2734 36.2662 10.1953C36.6415 10.1172 37.0268 10.0781 37.4219 10.0781C37.817 10.0781 38.2022 10.1172 38.5776 10.1953C38.9529 10.2734 39.3229 10.4167 39.6875 10.625L70.625 27.4219C71.0417 27.6823 71.3542 27.9939 71.5625 28.3568C71.7708 28.7196 71.875 29.1111 71.875 29.5313V50.5469C71.875 51.2109 71.6491 51.7676 71.1973 52.2168C70.7454 52.666 70.1855 52.8906 69.5176 52.8906C68.8496 52.8906 68.2943 52.666 67.8516 52.2168C67.4089 51.7676 67.1875 51.2109 67.1875 50.5469V30.8594L60.0781 34.4531V50.3906C60.0781 51.2891 59.8568 52.0996 59.4141 52.8223C58.9714 53.5449 58.3854 54.1146 57.6562 54.5313L39.6875 64.375C39.3229 64.5833 38.9529 64.7266 38.5776 64.8047C38.2022 64.8828 37.817 64.9219 37.4219 64.9219C37.0268 64.9219 36.6415 64.8828 36.2662 64.8047C35.8908 64.7266 35.5208 64.5833 35.1562 64.375L17.1875 54.5313ZM37.4219 41.5625L62.0312 28.125L37.4219 14.9219L12.9688 28.125L37.4219 41.5625ZM37.4219 60.3125L55.3906 50.3906V37.2656L39.6875 45.7031C39.3229 45.9115 38.9583 46.0547 38.5938 46.1328C38.2292 46.2109 37.8385 46.25 37.4219 46.25C37.0052 46.25 36.6276 46.2109 36.2891 46.1328C35.9505 46.0547 35.599 45.9115 35.2344 45.7031L19.4531 37.1094V50.3906L37.4219 60.3125Z" fill="white"/>
</svg>
