<svg width="130" height="130" viewBox="0 0 130 130" fill="none" xmlns="http://www.w3.org/2000/svg">
<rect x="0.5" y="0.5" width="129" height="129" rx="19.5" stroke="#2AB9C0"/>
<g clip-path="url(#clip0_167_2265)">
<path d="M90.6643 97.1331H40.1266C36.0783 97.1331 35 96.0548 35 92.0729C35 77.9828 35 63.8914 35 49.7989C35 46.2033 36.2218 45.0146 39.8653 45.0146C58.6544 45.0146 77.4447 45.0146 96.2362 45.0146C99.7987 45.0146 100.995 46.1813 101.002 49.6811C101.002 54.009 101.002 58.3368 101.002 62.9002C99.5705 61.9839 98.6689 61.1595 98.7388 59.4151C98.875 56.1287 98.7388 52.8276 98.7977 49.5339C98.8271 47.9367 98.2935 47.197 96.5895 47.2007C77.5551 47.2326 58.5207 47.2326 39.4863 47.2007C38.0142 47.2007 37.1934 47.668 37.1971 49.2873C37.2192 61.7336 37.2266 74.1787 37.2192 86.6225C37.2394 86.9153 37.2775 87.2066 37.3333 87.4947H39.3464C49.4745 87.4947 59.588 87.5131 69.7308 87.469C70.294 87.4354 70.8576 87.5269 71.3813 87.7369C71.905 87.9469 72.3757 88.2701 72.7597 88.6834C76.6902 92.6322 81.4709 94.752 87.076 94.3914C89.2032 94.2478 90.0349 95.1421 90.6643 97.1331Z" fill="#2AB9C0"/>
<path d="M42.1729 85.1284C42.1434 84.4991 42.0919 83.8992 42.0919 83.2883C42.0919 73.3445 42.0919 63.3995 42.0919 53.4532C42.0919 51.1016 42.2428 50.9544 44.5651 50.947C46.5156 50.947 48.4698 50.947 50.4204 50.947C51.5245 50.947 52.128 51.4254 52.128 52.5884C52.128 63.3786 52.128 74.1725 52.128 85.1173L42.1729 85.1284Z" fill="#2AB9C0"/>
<path d="M58.9366 99.2861H77.0178C78.0299 102.403 80.1644 104.306 83.4252 105.071C84.1612 105.207 84.8171 105.621 85.2574 106.226C85.6977 106.831 85.8889 107.582 85.7916 108.325C85.6738 109.863 84.2495 110.967 82.3689 110.974C75.6009 111.004 68.8292 110.974 62.0611 110.974C59.3782 110.974 56.6953 111 54.0123 110.974C52.0103 110.949 50.6412 109.87 50.4425 108.266C50.2437 106.661 51.1785 105.465 53.1254 104.895C56.0402 104.045 57.9502 102.16 58.9366 99.2861Z" fill="#2AB9C0"/>
<path d="M66.1646 85.1101H56.3456C56.3014 84.536 56.2242 84.0061 56.2242 83.4872C56.2242 76.5942 56.272 69.7013 56.1837 62.8084C56.1616 61.064 56.7799 60.5635 58.4176 60.6481C60.4859 60.7548 62.569 60.5855 64.6336 60.7401C65.1709 60.7806 65.6935 61.5424 66.1351 62.0502C66.286 62.2269 66.1646 62.6391 66.1646 62.9445V85.1101Z" fill="#2AB9C0"/>
<path d="M69.6572 75.3578C69.6572 73.1576 70.091 70.979 70.9338 68.9467C71.7765 66.9143 73.0117 65.0681 74.5687 63.5135C76.1257 61.959 77.9739 60.7266 80.0076 59.887C82.0414 59.0474 84.2207 58.617 86.4209 58.6204C90.8612 58.6592 95.1067 60.4493 98.2342 63.6015C101.362 66.7537 103.118 71.0131 103.122 75.4534C103.108 79.8955 101.334 84.1509 98.1869 87.2865C95.0403 90.422 90.7785 92.1817 86.3362 92.1798C84.136 92.1721 81.9589 91.7306 79.9294 90.8808C77.8999 90.0309 76.0579 88.7892 74.5088 87.2268C72.9597 85.6644 71.7338 83.8119 70.9013 81.7753C70.0688 79.7387 69.6461 77.5579 69.6572 75.3578ZM71.8838 75.5822C71.8919 77.4921 72.2768 79.3816 73.0163 81.1425C73.7557 82.9034 74.8353 84.5012 76.1932 85.8443C77.551 87.1874 79.1605 88.2495 80.9294 88.9697C82.6983 89.6899 84.592 90.0542 86.5018 90.0416C94.4218 89.9974 100.943 83.3327 100.914 75.321C100.884 67.3092 94.1936 60.7512 86.2589 60.8506C82.4025 60.9087 78.7259 62.4908 76.0324 65.2512C73.3388 68.0115 71.8473 71.7257 71.8838 75.5822Z" fill="#2AB9C0"/>
<path d="M100.638 88.8196C102.128 91.2374 103.825 93.8283 105.352 96.5185C105.98 97.6788 106.156 99.0301 105.848 100.313C105.54 101.595 104.768 102.719 103.681 103.467C102.558 104.175 101.206 104.424 99.904 104.162C98.6022 103.901 97.451 103.148 96.6889 102.061C94.9077 99.4663 93.3104 96.7393 91.7316 94.2257L100.638 88.8196Z" fill="#2AB9C0"/>
</g>
<defs>
<clipPath id="clip0_167_2265">
<rect width="71" height="66" fill="white" transform="translate(35 45)"/>
</clipPath>
</defs>
</svg>
