<svg width="130" height="130" viewBox="0 0 130 130" fill="none" xmlns="http://www.w3.org/2000/svg">
<rect x="0.5" y="0.5" width="129" height="129" rx="19.5" stroke="#2AB9C0"/>
<path d="M104.751 45H25.0285C23.6415 45 22.5172 46.1299 22.5172 47.5238V98.4855C22.5172 99.8794 23.6415 101.009 25.0285 101.009H48.26L41.5783 117.277L43.3193 118L47.4963 107.832H82.2861L86.4622 118L88.2042 117.277L81.5225 101.009H104.753C106.14 101.009 107.264 99.8794 107.264 98.4855V47.5238C107.262 46.1299 106.138 45 104.751 45ZM81.5074 105.939H48.2722L50.2976 101.008H79.483L81.5074 105.939ZM105.379 98.4855C105.379 98.8338 105.098 99.1167 104.751 99.1167H25.0285C24.682 99.1157 24.4004 98.8328 24.4004 98.4855V47.5238C24.4004 47.1755 24.682 46.8926 25.0285 46.8926H104.752C105.098 46.8926 105.379 47.1755 105.379 47.5238V98.4855Z" fill="#2AB9C0"/>
<path d="M83.7488 53.3909H75.7499C74.9836 53.3909 74.5996 54.3284 75.1421 54.8764L77.6273 57.3909L63.1228 72.0666L58.0434 66.9273L56.6824 65.5502C56.2219 65.0843 55.4753 65.0843 55.0148 65.5502L46.3568 74.3104C45.8964 74.7763 45.8964 75.5318 46.3568 75.9977L47.7178 77.3748C48.1783 77.8407 48.925 77.8407 49.3854 77.3748L55.8481 70.8358L62.2782 77.3417C62.7387 77.8077 63.4854 77.8077 63.9459 77.3417L64.6385 76.641C64.6739 76.6127 64.7112 76.5872 64.7447 76.5533L80.6559 60.4543L83.141 62.9688C83.6826 63.5167 84.6092 63.1291 84.6092 62.3538V54.2605C84.6082 53.7804 84.2233 53.3909 83.7488 53.3909Z" fill="#2AB9C0"/>
<path d="M74.5402 69.7688V91.613C74.5402 92.2841 75.0462 92.8275 75.6711 92.8275H79.2828C79.9077 92.8275 80.4137 92.2841 80.4137 91.613V63.4597L74.5402 69.7688Z" fill="#2AB9C0"/>
<path d="M66.1494 78.0959V91.625C66.1494 92.2894 66.6554 92.8274 67.2803 92.8274H70.8921C71.517 92.8274 72.023 92.2894 72.023 91.625V71.8503L66.1494 78.0959Z" fill="#2AB9C0"/>
<path d="M63.0573 79.72C62.1469 79.72 61.2907 79.3848 60.647 78.7764L57.7587 76.0459V91.6057C57.7587 92.2808 58.337 92.8275 59.0511 92.8275H63.1788C63.893 92.8275 64.4713 92.2808 64.4713 91.6057V79.4273C64.033 79.6166 63.5538 79.72 63.0573 79.72Z" fill="#2AB9C0"/>
<path d="M55.4904 73.5288L50.6012 78.8099C50.4787 78.9422 50.3455 79.059 50.2069 79.1653V91.6059C50.2069 92.281 50.7129 92.8277 51.3378 92.8277H54.9496C55.5745 92.8277 56.0805 92.281 56.0805 91.6059V74.1672L55.4904 73.5288Z" fill="#2AB9C0"/>
</svg>
